<?xml version="1.0"?>
<svg version="1.1" id="topsvg"
xmlns="http://www.w3.org/2000/svg" xmlns:xlink="http://www.w3.org/1999/xlink"
xmlns:cml="http://www.xml-cml.org/schema" x="0" y="0" width="200px" height="200px" viewBox="0 0 100 100">
<title> - Open Babel Depiction</title>
<rect x="0" y="0" width="100" height="100" fill="white"/>
<g transform="translate(0,0)">
<svg width="100" height="100" x="0" y="0" viewBox="0 0 290.297 266.487"
font-family="sans-serif" stroke="rgb(0,0,0)" stroke-width="4"  stroke-linecap="round">
<line x1="147.3" y1="154.1" x2="159.7" y2="116.1" opacity="1.0" stroke="rgb(0,0,0)"  stroke-width="4.0"/>
<line x1="159.7" y1="116.1" x2="198.8" y2="107.8" opacity="1.0" stroke="rgb(0,0,0)"  stroke-width="4.0"/>
<polygon points="198.810877 107.768054 219.716156 125.007813 213.770998 130.360857 " stroke-width="4.000000" fill="rgb(0,0,0)"  stroke="rgb(0,0,0)" />
<line x1="198.8" y1="107.8" x2="211.2" y2="69.7" opacity="1.0" stroke="rgb(0,0,0)"  stroke-width="4.0"/>
<line x1="210.5" y1="66.8" x2="237.0" y2="61.2" opacity="1.0" stroke="rgb(0,0,0)"  stroke-width="4.0"/>
<line x1="211.8" y1="72.7" x2="238.2" y2="67.0" opacity="1.0" stroke="rgb(0,0,0)"  stroke-width="4.0"/>
<line x1="211.2" y1="69.7" x2="193.1" y2="49.7" opacity="1.0" stroke="rgb(0,0,0)"  stroke-width="4.0"/>
<line x1="109.3" y1="206.5" x2="109.3" y2="166.5" opacity="1.0" stroke="rgb(0,0,0)"  stroke-width="4.0"/>
<line x1="116.5" y1="200.5" x2="116.5" y2="172.5" opacity="1.0" stroke="rgb(0,0,0)"  stroke-width="4.0"/>
<line x1="109.3" y1="166.5" x2="147.3" y2="154.1" opacity="1.0" stroke="rgb(0,0,0)"  stroke-width="4.0"/>
<line x1="147.3" y1="154.1" x2="170.8" y2="186.5" opacity="1.0" stroke="rgb(0,0,0)"  stroke-width="4.0"/>
<line x1="145.0" y1="163.2" x2="161.5" y2="185.9" opacity="1.0" stroke="rgb(0,0,0)"  stroke-width="4.0"/>
<line x1="170.8" y1="186.5" x2="155.0" y2="208.3" opacity="1.0" stroke="rgb(0,0,0)"  stroke-width="4.0"/>
<line x1="135.0" y1="214.8" x2="109.3" y2="206.5" opacity="1.0" stroke="rgb(0,0,0)"  stroke-width="4.0"/>
<line x1="40.0" y1="166.5" x2="74.6" y2="146.5" opacity="1.0" stroke="rgb(0,0,0)"  stroke-width="4.0"/>
<line x1="48.8" y1="169.7" x2="73.0" y2="155.7" opacity="1.0" stroke="rgb(0,0,0)"  stroke-width="4.0"/>
<line x1="74.6" y1="146.5" x2="109.3" y2="166.5" opacity="1.0" stroke="rgb(0,0,0)"  stroke-width="4.0"/>
<line x1="109.3" y1="206.5" x2="74.6" y2="226.5" opacity="1.0" stroke="rgb(0,0,0)"  stroke-width="4.0"/>
<line x1="74.6" y1="226.5" x2="40.0" y2="206.5" opacity="1.0" stroke="rgb(0,0,0)"  stroke-width="4.0"/>
<line x1="73.0" y1="217.3" x2="48.8" y2="203.3" opacity="1.0" stroke="rgb(0,0,0)"  stroke-width="4.0"/>
<line x1="40.0" y1="206.5" x2="40.0" y2="166.5" opacity="1.0" stroke="rgb(0,0,0)"  stroke-width="4.0"/>
<text x="141.324293" y="226.848142" fill="rgb(12,12,255)" stroke-width="0" font-weight="bold" font-size="16" >N</text>
<text x="141.324293" y="242.848142" fill="rgb(12,12,255)" stroke-width="0" font-weight="bold" font-size="16" >H</text>
<text x="221.576101" y="145.493847" fill="rgb(12,12,255)" stroke-width="0" font-weight="bold" font-size="16" >NH</text>
<text x="245.576101" y="149.173847" fill="rgb(12,12,255)" stroke-width="0" font-weight="bold" font-size="13" >2</text>
<text x="244.297461" y="69.409325" fill="rgb(255,12,12)" stroke-width="0" font-weight="bold" font-size="16" >O</text>
<text x="166.406332" y="48.000000" fill="rgb(255,12,12)" stroke-width="0" font-weight="bold" font-size="16" >HO</text>
</svg>
</g>
<text font-size="18.000000" fill ="black" font-family="sans-serif"
x="10.000000" y="20.000000" ></text>
</svg>
